<svg width="93px" height="79px" viewBox="0 0 93 79" version="1.1" xmlns="http://www.w3.org/2000/svg" xmlns:xlink="http://www.w3.org/1999/xlink">
    <g id="english" stroke="none" stroke-width="1" fill="none" fill-rule="evenodd">
        <g id="06-startimeContacts" transform="translate(-1354.000000, -974.000000)" fill-rule="nonzero">
            <g id="whatsapp" transform="translate(1354.000000, 969.000000)">
                <path d="M12.5454223,76.4348739 L12.4443639,76.4348739 L9.71578723,66.3290344 L7.59356094,66.3290344 L4.96604268,76.4348739 L4.86498428,76.4348739 L2.5406412,66.3290344 L0.0141813297,66.3290344 L3.65228354,79.8708593 L5.97662662,79.8708593 L8.70520328,70.2703118 L8.80626168,70.2703118 L11.5348383,79.8708593 L13.758123,79.8708593 L17.2951668,66.4300928 L14.8697654,66.4300928 L12.5454223,76.4348739 Z M24.8745465,69.3607862 C24.1671377,69.3607862 23.4597289,69.562903 22.8533786,69.8660782 C22.3480866,70.1692534 21.8427946,70.6745454 21.6406778,71.1798373 L21.438561,71.1798373 L21.438561,65.6216256 L19.1142179,65.6216256 L19.1142179,79.8708593 L21.438561,79.8708593 L21.438561,73.908414 C21.438561,73.2010052 21.6406778,72.5946549 22.1459698,72.0893629 C22.6512618,71.5840709 23.2576121,71.3819541 23.9650209,71.3819541 C24.5713713,71.3819541 25.1777216,71.5840709 25.5819552,71.9883045 C25.9861888,72.4935965 26.1883056,73.0999468 26.0872472,73.7062972 L26.0872472,79.7698009 L28.5126487,79.7698009 L28.5126487,73.2010052 C28.6137071,72.1904213 28.2094735,71.1798373 27.6031231,70.3713702 C26.8957144,69.6639614 25.8851304,69.3607862 24.8745465,69.3607862 Z M34.9803859,69.3607862 C33.8687436,69.3607862 32.8581596,69.562903 31.9486341,70.1692534 C31.2412253,70.6745454 30.7359334,71.4830125 30.634875,72.2914797 L32.8581596,72.2914797 C32.959218,71.9883045 33.2623932,71.6851293 33.5655684,71.4830125 C33.969802,71.2808957 34.475094,71.1798373 34.8793275,71.1798373 C35.3846195,71.1798373 35.8899115,71.2808957 36.2941451,71.5840709 C36.5973203,71.8872461 36.799437,72.2914797 36.799437,72.7967717 L36.799437,73.7062972 L34.1719188,73.908414 C33.1613348,73.908414 32.1507509,74.2115892 31.2412253,74.8179396 C30.5338166,75.3232315 30.2306414,76.1316987 30.2306414,77.0412242 C30.2306414,77.8496914 30.5338166,78.6581586 31.1401669,79.2645089 C31.8475757,79.8708593 32.6560429,80.1740345 33.5655684,80.0729761 C34.1719188,80.0729761 34.7782691,79.9719177 35.3846195,79.6687425 C35.8899115,79.3655673 36.2941451,78.9613337 36.5973203,78.5571002 L36.799437,78.5571002 L36.799437,79.9719177 L39.0227217,79.9719177 L39.0227217,72.8978301 C39.1237801,71.8872461 38.7195465,70.9777206 37.9110794,70.3713702 C37.1026122,69.562903 35.9909699,69.2597278 34.9803859,69.3607862 Z M36.799437,76.1316987 C36.799437,76.7380491 36.5973203,77.243341 36.0920283,77.6475746 C35.5867363,78.0518082 34.9803859,78.253925 34.3740356,78.253925 C33.8687436,78.253925 33.46451,78.1528666 33.0602764,77.8496914 C32.7571012,77.6475746 32.5549845,77.243341 32.5549845,76.8391075 C32.5549845,76.0306403 33.1613348,75.5253483 34.475094,75.4242899 L36.799437,75.3232315 L36.799437,76.1316987 Z M44.479875,67.1375016 L42.155532,67.1375016 L42.155532,69.6639614 L40.4375393,69.6639614 L40.4375393,71.4830125 L42.155532,71.4830125 L42.155532,77.0412242 C42.0544736,77.8496914 42.3576488,78.6581586 42.9639991,79.1634505 C43.6714079,79.6687425 44.5809334,79.8708593 45.490459,79.7698009 C45.8946926,79.7698009 46.2989262,79.7698009 46.7031597,79.6687425 L46.7031597,77.9507498 C46.3999845,77.9507498 46.1978678,77.9507498 45.8946926,77.9507498 C45.490459,77.9507498 45.0862254,77.8496914 44.7830502,77.6475746 C44.5809334,77.3443994 44.3788167,76.9401658 44.479875,76.5359323 L44.479875,71.4830125 L46.7031597,71.4830125 L46.7031597,69.6639614 L44.479875,69.6639614 C44.479875,69.6639614 44.479875,67.1375016 44.479875,67.1375016 Z M53.7772474,74.0094724 L51.9581963,73.6052388 C51.5539627,73.5041804 51.1497291,73.403122 50.8465539,73.0999468 C50.6444371,72.8978301 50.4423203,72.6957133 50.4423203,72.3925381 C50.4423203,71.9883045 50.6444371,71.6851293 50.9476123,71.4830125 C51.3518459,71.2808957 51.8571379,71.0787789 52.2613714,71.1798373 C52.7666634,71.1798373 53.170897,71.2808957 53.5751306,71.4830125 C53.8783058,71.6851293 54.0804226,71.9883045 54.1814809,72.3925381 L56.4047656,72.3925381 C56.4047656,71.4830125 55.8994737,70.6745454 55.1920649,70.1692534 C54.2825393,69.6639614 53.2719554,69.3607862 52.2613714,69.3607862 C51.2507875,69.3607862 50.1391452,69.6639614 49.330678,70.2703118 C48.6232692,70.7756038 48.2190357,71.6851293 48.2190357,72.4935965 C48.2190357,73.2010052 48.4211524,73.8073556 48.9264444,74.3126476 C49.5327948,74.8179396 50.3412619,75.2221731 51.1497291,75.3232315 L52.9687802,75.7274651 C53.8783058,75.9295819 54.3835977,76.3338155 54.3835977,76.9401658 C54.3835977,77.3443994 54.1814809,77.6475746 53.8783058,77.8496914 C53.4740722,78.0518082 52.9687802,78.253925 52.4634882,78.1528666 C51.9581963,78.1528666 51.4529043,78.0518082 51.0486707,77.8496914 C50.7454955,77.6475746 50.4423203,77.3443994 50.3412619,76.9401658 L48.0169189,76.9401658 C48.0169189,77.8496914 48.5222108,78.6581586 49.330678,79.1634505 C50.2402036,79.7698009 51.3518459,79.9719177 52.3624298,79.9719177 C53.4740722,79.9719177 54.5857145,79.6687425 55.4952401,79.0623921 C56.3037072,78.5571002 56.7079408,77.6475746 56.7079408,76.6369907 C56.7079408,75.9295819 56.505824,75.3232315 56.0005321,74.8179396 C55.1920649,74.413706 54.4846561,74.1105308 53.7772474,74.0094724 Z M62.2661525,66.3290344 L57.4153496,79.8708593 L59.8407511,79.8708593 L61.0534518,76.4348739 L66.1063715,76.4348739 L67.2180139,79.8708593 L69.8455321,79.8708593 L64.9947292,66.3290344 L62.2661525,66.3290344 Z M61.6598022,74.5147644 L63.4788533,68.9565527 L63.6809701,68.9565527 L65.5000212,74.5147644 L61.6598022,74.5147644 Z M77.0206782,69.4618446 C76.3132694,69.4618446 75.706919,69.6639614 75.1005687,69.9671366 C74.5952767,70.2703118 74.0899847,70.7756038 73.7868095,71.3819541 L73.5846928,71.3819541 L73.5846928,69.6639614 L71.3614081,69.6639614 L71.3614081,83.2057863 L73.6857511,83.2057863 L73.6857511,78.3549834 L73.8878679,78.3549834 C74.1910431,78.8602753 74.5952767,79.3655673 75.1005687,79.6687425 C75.706919,79.9719177 76.3132694,80.1740345 77.0206782,80.0729761 C78.2333789,80.0729761 79.3450213,79.5676841 80.05243,78.6581586 C80.8608972,77.5465162 81.2651308,76.1316987 81.1640724,74.8179396 C81.2651308,73.403122 80.8608972,72.0893629 80.05243,70.9777206 C79.3450213,69.8660782 78.1323205,69.3607862 77.0206782,69.4618446 Z M78.1323205,77.1422826 C77.3238534,78.1528666 75.706919,78.3549834 74.6963351,77.4454578 C74.5952767,77.3443994 74.4942183,77.243341 74.3931599,77.1422826 C73.8878679,76.4348739 73.6857511,75.6264067 73.6857511,74.7168812 C73.6857511,73.8073556 73.8878679,72.9988884 74.3931599,72.2914797 C75.3026855,71.2808957 76.8185614,71.0787789 77.8291453,71.9883045 C77.9302037,72.0893629 78.0312621,72.1904213 78.1323205,72.2914797 C78.6376125,72.9988884 78.8397293,73.908414 78.8397293,74.7168812 C78.8397293,75.6264067 78.6376125,76.4348739 78.1323205,77.1422826 Z M91.7752038,70.8766622 C91.0677951,69.9671366 89.8550943,69.3607862 88.6423936,69.4618446 C87.9349848,69.4618446 87.3286344,69.6639614 86.7222841,69.9671366 C86.2169921,70.2703118 85.7117001,70.7756038 85.4085249,71.3819541 L85.2064082,71.3819541 L85.2064082,69.6639614 L83.0841819,69.6639614 L83.0841819,83.2057863 L85.4085249,83.2057863 L85.4085249,78.3549834 L85.6106417,78.3549834 C85.8127585,78.8602753 86.2169921,79.3655673 86.8233425,79.6687425 C87.4296928,79.9719177 88.0360432,80.1740345 88.743452,80.0729761 C89.9561527,80.1740345 91.0677951,79.5676841 91.8762622,78.6581586 C92.6847294,77.5465162 93.088963,76.1316987 92.9879046,74.8179396 C92.9879046,73.3020636 92.583671,71.9883045 91.7752038,70.8766622 Z M89.8550943,77.1422826 C89.0466272,78.1528666 87.4296928,78.3549834 86.4191089,77.4454578 C86.3180505,77.3443994 86.2169921,77.243341 86.1159337,77.1422826 C85.6106417,76.4348739 85.4085249,75.6264067 85.4085249,74.7168812 C85.4085249,73.8073556 85.6106417,72.9988884 86.1159337,72.2914797 C87.0254593,71.2808957 88.5413352,71.0787789 89.5519191,71.9883045 C89.6529775,72.0893629 89.7540359,72.1904213 89.8550943,72.2914797 C90.3603863,72.9988884 90.5625031,73.908414 90.5625031,74.7168812 C90.5625031,75.6264067 90.2593279,76.4348739 89.8550943,77.1422826 Z" id="Shape" fill="#646773"></path>
                <path d="M50.102031,5.76787419 L50.0908091,5.76787419 C37.7158627,5.76787419 27.652627,15.8339154 27.652627,28.2116672 C27.652627,33.1212469 29.2349144,37.671726 31.9253641,41.3665354 L29.1283064,49.7044045 L37.7551394,46.9466234 C41.3040641,49.2976108 45.5375246,50.6554602 50.102031,50.6554602 C62.4769774,50.6554602 72.5402131,40.5866136 72.5402131,28.2116672 C72.5402131,15.8367208 62.4769774,5.76787419 50.102031,5.76787419 Z" id="Shape" fill="#4CAF50" transform="translate(50.096420, 28.211667) rotate(-15.000000) translate(-50.096420, -28.211667) "></path>
                <path d="M63.1615131,37.4613154 C62.6200566,38.9902988 60.4710634,40.2583731 58.7569187,40.6286957 C57.5842305,40.8783829 56.0524416,41.0775716 50.8959802,38.9398003 C44.3003105,36.2072685 40.0528227,29.5049908 39.7217767,29.0701423 C39.4047582,28.6352938 37.0565763,25.5212175 37.0565763,22.3005332 C37.0565763,19.0798489 38.6921677,17.5115889 39.3514542,16.8382751 C39.8929107,16.2855967 40.7878569,16.033104 41.646332,16.033104 C41.9240739,16.033104 42.1737611,16.0471314 42.3981991,16.0583533 C43.0574855,16.086408 43.3885314,16.1256847 43.8233799,17.1665156 C44.3648364,18.471061 45.6834093,21.6917453 45.8405158,22.0227913 C46.0004278,22.3538372 46.1603399,22.8027131 45.9359019,23.2375616 C45.7254914,23.6864374 45.5403301,23.8856261 45.2092841,24.2671706 C44.8782382,24.6487151 44.5640251,24.9404844 44.2329791,25.3500836 C43.9299879,25.7063788 43.5877201,26.0879233 43.9692646,26.7472097 C44.3508091,27.3924688 45.6693819,29.5442674 47.61077,31.2724395 C50.1160584,33.5027914 52.1472217,34.2153819 52.8738395,34.5183731 C53.415296,34.742811 54.060555,34.689507 54.4561269,34.2686859 C54.9583067,33.7272294 55.5783165,32.8294776 56.2095482,31.9457533 C56.6584241,31.3117161 57.2251298,31.2331629 57.8198903,31.4576008 C58.4258728,31.6680113 61.6325297,33.2531042 62.2918161,33.5813447 C62.9511025,33.9123906 63.385951,34.0694972 63.545863,34.3472391 C63.7029696,34.6249811 63.7029696,35.9295265 63.1615131,37.4613154 Z" id="Shape" fill="#FAFAFA"></path>
            </g>
        </g>
    </g>
</svg>