<svg width="60px" height="74px" viewBox="0 0 60 74" version="1.1" xmlns="http://www.w3.org/2000/svg" xmlns:xlink="http://www.w3.org/1999/xlink">
    <g id="english" stroke="none" stroke-width="1" fill="none" fill-rule="evenodd">
        <g id="06-startimeContacts" transform="translate(-1261.000000, -975.000000)">
            <g id="Group-4" transform="translate(1261.000000, 975.000000)">
                <path d="M38.2281004,0.450304948 L29.260226,0.450304948 C20.6065377,0.450304948 13.566424,7.49041864 13.566424,16.144107 L13.566424,22.8700347 C13.566424,28.9454361 17.0702812,34.4588404 22.5342984,37.0522762 L22.5342984,44.5423904 C22.5342984,45.1927415 23.3478721,45.5327594 23.8100442,45.0708499 L30.3169699,38.5638367 L38.2280129,38.5638367 C46.8816136,38.5638367 53.9218149,31.523723 53.9218149,22.8700347 L53.9218149,16.144107 C53.9218149,7.49041864 46.8816136,0.450304948 38.2281004,0.450304948 Z" id="Shape" fill="#665CAC" fill-rule="nonzero"></path>
                <path d="M24.7762451,37.0521886 C19.3122279,34.4586653 15.8083707,28.9453486 15.8083707,22.8699471 L15.8083707,16.1440194 C15.8083707,7.49041864 22.848572,0.450304948 31.5021727,0.450304948 L29.260226,0.450304948 C20.6065377,0.450304948 13.566424,7.49041864 13.566424,16.144107 L13.566424,22.8700347 C13.566424,28.9454361 17.0702812,34.4588404 22.5342984,37.0522762 L22.5342984,44.5423904 C22.5342984,45.1927415 23.3478721,45.5327594 23.8100442,45.0708499 L24.7762451,44.1046491 L24.7762451,37.0521886 Z" id="Shape" fill="#523494" fill-rule="nonzero"></path>
                <path d="M45.0269704,28.3050676 L44.3550781,24.6653083 C44.2994739,24.3646074 44.0665489,24.1280922 43.7667237,24.0681097 L38.4823914,23.0112783 C38.2369446,22.9624166 37.9840546,23.0390366 37.8072593,23.2156568 L35.660409,25.3625946 C32.0432417,23.7418396 30.0357086,21.7299282 28.2693317,17.9575068 L30.4092642,15.8176618 C30.5858844,15.640954 30.662592,15.3875386 30.6136428,15.1425296 L29.5568114,9.8581098 C29.4968288,9.55837213 29.2603136,9.32527202 28.9596127,9.26975532 L25.3198535,8.59795064 C25.2202036,8.5796494 25.1175765,8.58157584 25.0186272,8.60408025 C24.0575927,8.82238174 23.180709,9.30662051 22.4827221,10.0047825 C21.2741392,11.2133654 20.8122297,12.9769402 21.1470813,15.1048763 C21.709166,18.6780856 23.4597811,23.6507712 26.689645,26.8935947 L26.7337781,26.9373776 C29.9740623,30.1649648 34.9468355,31.915755 38.5202199,32.4779273 C38.9703955,32.5488556 39.4039337,32.5839695 39.8196961,32.5839695 C41.3691726,32.5839695 42.6673353,32.0951773 43.6204888,31.1421989 C44.3184756,30.4441245 44.8028895,29.5672407 45.0211035,28.6063814 C45.0432576,28.5073445 45.0453592,28.4048926 45.0269704,28.3050676 Z" id="Shape" fill="#FFFFFF" fill-rule="nonzero"></path>
                <polygon id="Shape" fill="#E5E5E5" fill-rule="nonzero" points="29.6785278 16.5483106 30.4091767 15.8175742 30.4099648 15.8167861 29.6784402 16.5482231"></polygon>
                <rect id="Rectangle-path" fill="#E5E5E5" fill-rule="nonzero" transform="translate(37.791948, 23.937313) rotate(-45.000000) translate(-37.791948, -23.937313) " x="37.270236" y="23.437313" width="1.04342384" height="1"></rect>
                <path d="M41.2286295,31.1745982 C40.8128672,31.1745982 40.379329,31.1394844 39.9291533,31.0685561 C36.3558564,30.5063838 31.3830833,28.7555935 28.1427115,25.5280064 L28.0985784,25.4842235 C24.8687145,22.2413999 23.1180994,17.2687143 22.5560147,13.695505 C22.285524,11.9763261 22.5356119,10.4951509 23.2789578,9.35215472 C22.9942814,9.5420849 22.7271182,9.75994856 22.4823719,10.0046949 C21.273789,11.2132778 20.8118795,12.9768527 21.146731,15.1047887 C21.7088158,18.677998 23.4594309,23.6506836 26.6892947,26.8935072 L26.7334279,26.9372901 C29.973712,30.1648772 34.9464852,31.9156674 38.5198696,32.4778398 C38.9700453,32.548768 39.4035835,32.5838819 39.8193458,32.5838819 C41.3688223,32.5838819 42.666985,32.0951773 43.6201385,31.1421113 C43.8647973,30.897365 44.082661,30.6302893 44.2725912,30.345613 C43.4287197,30.8944753 42.4006975,31.1745982 41.2286295,31.1745982 Z" id="Shape" fill="#E5E5E5" fill-rule="nonzero"></path>
                <path d="M35.2387798,13.1547863 C34.8260822,13.1547863 34.4914934,13.4893752 34.4914934,13.9020727 C34.4914934,14.3147702 34.8260822,14.6493591 35.2387798,14.6493591 C36.887118,14.6493591 38.2281004,15.9903415 38.2281004,17.6386797 C38.2281004,18.0458606 38.5682059,18.3859661 38.9753868,18.3859661 C39.3825677,18.3859661 39.7226732,18.0458606 39.7226732,17.6386797 C39.7227607,15.1661723 37.7112872,13.1547863 35.2387798,13.1547863 Z" id="Shape" fill="#FFFFFF" fill-rule="nonzero"></path>
                <path d="M35.2387798,10.1654657 C34.9623346,10.1654657 34.68335,10.1807897 34.4094443,10.2109999 C33.9991986,10.2562714 33.7033138,10.6255363 33.7485853,11.0358696 C33.7938568,11.4462028 34.1639098,11.7412995 34.573455,11.6967285 C34.7930699,11.6724728 35.0168881,11.660126 35.2387798,11.660126 C38.5353687,11.660126 41.2173335,14.3420908 41.2173335,17.6386797 C41.2173335,17.860659 41.2049867,18.0844771 41.180731,18.3040921 C41.1360725,18.7087336 41.4367733,19.0843908 41.84159,19.1289618 C42.246319,19.1735328 42.6217135,18.8729194 42.6664596,18.4681028 C42.6966698,18.1941971 42.7119938,17.9152125 42.7119938,17.6386797 C42.7119938,13.5180092 39.3595379,10.1654657 35.2387798,10.1654657 Z" id="Shape" fill="#FFFFFF" fill-rule="nonzero"></path>
                <path d="M35.2387798,7.17623262 C34.9717041,7.17623262 34.7012134,7.18639025 34.4350135,7.20661794 C34.0234543,7.23779136 33.7150476,7.59681106 33.746221,8.00828267 C33.7773069,8.41984184 34.1375525,8.72824853 34.5478858,8.69707511 C34.7766951,8.67964952 35.0091823,8.67089294 35.2387798,8.67089294 C40.183707,8.67089294 44.2066541,12.6938401 44.2066541,17.6387673 C44.2066541,18.3384179 44.1259185,19.0349161 43.9667239,19.7088224 C43.8753928,20.0949875 44.1132215,20.496389 44.4961466,20.6012928 C44.8990368,20.7116257 45.325307,20.4589984 45.4212791,20.0526056 C45.6070937,19.2661774 45.7013145,18.4540923 45.7013145,17.6387673 C45.7013145,11.8696709 41.0078761,7.17623262 35.2387798,7.17623262 Z" id="Shape" fill="#FFFFFF" fill-rule="nonzero"></path>
                <path d="M31.7829828,66.7215903 C31.7829828,66.5394419 31.8016812,66.265091 31.7766963,65.994931 C31.759771,65.8064961 31.6740162,65.6285387 31.6362969,65.4421993 C31.4560829,64.5166275 30.9431659,63.8296218 30.140907,63.3582927 C29.3326839,62.8850292 28.5180131,62.8977635 27.6991513,63.3542629 C26.5828879,63.974051 26.1849017,65.0211625 26.0048488,66.1877182 C25.9021687,66.8537688 25.9735773,67.5217537 26.1702331,68.170879 C26.3525427,68.7698732 26.6436578,69.3164796 27.1024138,69.7331642 C28.2771904,70.8054218 30.1033489,70.6861388 31.1127412,69.2787604 C31.6425835,68.5416235 31.8268274,67.7059976 31.7829828,66.7215903 M26.3190145,60.7406752 C26.4552228,60.7050514 26.5807924,60.7050514 26.6646129,60.6463771 C27.726393,59.8819986 28.9242202,59.6556833 30.1913605,59.8002736 C30.964121,59.8882851 31.722213,60.1039617 32.3839113,60.5164553 C32.9869354,60.8913909 33.5357984,61.3562723 33.9608651,61.9343113 C34.3985048,62.5249235 34.8277625,63.1279475 35.070842,63.8317173 C35.1756176,64.137501 35.2341308,64.457792 35.3221423,64.7698622 C35.4414253,65.1929945 35.5044519,65.6201567 35.4959086,66.0600531 C35.4875266,66.7278768 35.5168638,67.3981185 35.4665715,68.0640079 C35.4351388,68.4745671 35.2928051,68.8809354 35.190125,69.2871424 C34.959941,70.2085231 34.4341286,70.9709673 33.8394866,71.682958 C33.181818,72.4661961 32.3839113,73.0943663 31.4206203,73.4504422 C30.5619438,73.7667034 29.6594227,73.7583214 28.7567403,73.6891694 C28.103424,73.6409727 27.5107164,73.4399646 26.9850651,73.0545515 C26.8195196,72.933173 26.677186,72.7845528 26.5263091,72.646249 C26.3483517,72.4850557 26.231003,72.482799 26.0760962,72.6588221 C25.9945324,72.7489291 25.927476,72.8535435 25.8583241,72.9541281 C25.5190123,73.4378691 25.0541309,73.6724053 24.4677098,73.6598323 C24.1304935,73.6535457 23.7976294,73.6891694 23.4666996,73.5258807 C23.2447364,73.416914 23.0687134,73.2808669 22.9473349,73.0880797 C22.7148942,72.7174964 22.5285547,72.3280535 22.5158205,71.8713929 C22.5032474,71.3813654 22.4531163,70.8934333 22.4531163,70.4034058 C22.4468297,66.273473 22.4447342,62.1459581 22.4510208,58.0158641 C22.4531163,57.4713532 22.492931,56.9270036 22.7190852,56.4160209 C22.8511025,56.1144283 22.9995615,55.8128357 23.2992198,55.6495469 C23.816489,55.3647184 24.3547133,55.2829934 24.9453254,55.4422523 C25.7640261,55.66212 26.0343472,56.2946424 26.1808719,57.006633 C26.4133126,58.1269263 26.3190145,59.2662403 26.3190145,60.3971723 C26.3190145,60.4913092 26.3190145,60.5835117 26.3190145,60.7406752" id="Fill-4" fill="#5D3A7B"></path>
                <path d="M8.34177374,67.1034572 C8.46331347,66.7433514 8.54503845,66.4878601 8.6349843,66.2344642 C8.8506609,65.6208014 9.06633749,65.0071387 9.28620512,64.3976669 C9.50188171,63.7967384 9.72400604,63.1998397 9.94177815,62.6010067 C10.1763144,61.9621978 10.4150416,61.3233888 10.6411958,60.6824844 C10.8044845,60.221794 10.9469794,59.7548171 11.1104294,59.2962223 C11.2359989,58.9380508 11.3762371,58.5842316 11.5103499,58.2302512 C11.7008803,57.7360326 11.8914108,57.241814 12.0861322,56.749691 C12.1552841,56.5736679 12.2307226,56.3999016 12.3143819,56.230165 C12.5386017,55.7862388 12.9133761,55.5391295 13.3847052,55.4282285 C14.1595613,55.2480144 15.3112872,55.503667 15.6883183,56.4606714 C15.7176554,56.5361099 15.7553747,56.6134826 15.7594045,56.6929509 C15.8076013,57.4071983 15.7740731,58.0982339 15.4684506,58.7746008 C15.1479984,59.4888482 14.9071757,60.2406536 14.6202517,60.9695696 C14.4800135,61.3254843 14.306086,61.6647962 14.1658478,62.0186154 C13.8768283,62.7496269 13.6024773,63.4846682 13.3176488,64.2155185 C13.1585511,64.6218867 12.986719,65.0218073 12.8234303,65.4238233 C12.609688,65.9517312 12.3983636,66.4773825 12.1867168,67.0072248 C11.9502463,67.6018667 11.7134534,68.1966699 11.4808515,68.7935686 C11.2611451,69.3590346 11.0578804,69.9306259 10.8254397,70.4919009 C10.5240082,71.2187214 10.2054903,71.9389329 9.88729482,72.6594668 C9.58151119,73.3505024 9.00347212,73.6059937 8.28729041,73.6625726 C7.9188026,73.6898142 7.57739525,73.5976117 7.25484751,73.4699466 C6.91360136,73.3338995 6.70824113,73.0113517 6.53850461,72.7055681 C6.3374966,72.3390146 6.19097192,71.9432851 6.02977865,71.5557765 C5.85810782,71.1411874 5.69465784,70.7243416 5.52717803,70.3055615 C5.30731041,69.7526686 5.08937711,69.1997756 4.86531846,68.6470439 C4.63690759,68.0793212 4.40237138,67.5138552 4.17218739,66.9464549 C4.023406,66.5840924 3.87478581,66.2238255 3.73019544,65.8595287 C3.50404128,65.2919672 3.28417366,64.7202146 3.0580195,64.1528143 C2.84427722,63.6123333 2.62666631,63.074109 2.41098971,62.5358846 C2.2580173,62.1569192 2.10311056,61.7798882 1.95223366,61.4007616 C1.66127981,60.672168 1.37226027,59.943252 1.08324074,59.2124018 C0.993133698,58.9862476 0.926077297,58.7454248 0.806794276,58.5337781 C0.488437566,57.9663778 0.51970906,57.3380464 0.653983055,56.7727416 C0.798412226,56.1611743 1.19833273,55.6480961 1.90613239,55.5181744 C1.97318879,55.5056013 2.03798848,55.4827118 2.10311056,55.4595 C2.77738202,55.2081997 3.72197459,55.4699776 4.07160279,56.2554724 C4.38157745,56.950699 4.66221494,57.6605941 4.94075691,58.3706505 C5.31553127,59.3276549 5.67998925,60.2888504 6.04219053,61.2502071 C6.17436901,61.6040263 6.27898345,61.9684843 6.40890522,62.3223035 C6.64118473,62.9611125 6.88410299,63.5957304 7.11654368,64.2345393 C7.32819045,64.8187037 7.53129397,65.4072204 7.73874971,65.9936415 C7.82031351,66.2260822 7.88301769,66.4646482 7.98988883,66.6825815 C8.05484972,66.8186286 8.1846103,66.9213088 8.34177374,67.1034572" id="Fill-5" fill="#5D3A7B"></path>
                <path d="M42.8558322,65.6030702 L42.8558322,65.5798584 C43.0882729,65.5798584 43.3208748,65.577924 43.5533155,65.5798584 C44.2088885,65.5842106 44.8643004,65.5882404 45.5218077,65.5924314 C45.8277525,65.5945269 45.9135074,65.4857215 45.8338779,65.1862244 C45.8108272,65.094183 45.7669827,65.0061715 45.7460276,64.913969 C45.5659747,64.1579725 45.117535,63.5925065 44.4830783,63.1695354 C44.150053,62.947411 43.7668966,62.8847069 43.3793879,62.7925043 C42.8956469,62.6753168 42.4475296,62.7799312 42.0202063,62.8826113 C41.3272364,63.0500912 40.7678958,63.4919219 40.4203631,64.1328264 C40.2212894,64.4971232 40.0852423,64.8994616 39.9406519,65.2908388 C39.8674701,65.4918468 39.9911054,65.6050045 40.2338624,65.6030702 C41.1072076,65.6008135 41.9826482,65.6030702 42.8558322,65.6030702 M44.3009299,67.7704749 C43.0444283,67.7704749 41.7856701,67.7704749 40.5272342,67.7704749 C40.4727509,67.7704749 40.4182676,67.7641884 40.3637842,67.7683794 C40.1145794,67.7851435 40.0014218,67.9169996 40.0957198,68.1452493 C40.2150028,68.4323345 40.3491156,68.7276406 40.5438371,68.9621768 C40.9355368,69.4354402 41.371081,69.8709844 41.9889348,70.0552283 C42.6717495,70.2584931 43.3500508,70.4154953 44.0747757,70.2082008 C44.514511,70.0803745 44.9753625,70.0302434 45.3983337,69.8248832 C45.7898721,69.6364482 46.1918881,69.4750938 46.5940654,69.3097095 C46.9436936,69.1673758 47.2725278,68.9703976 47.6788961,68.9831319 C48.4203851,69.0039258 49.0443643,69.6364482 49.0632239,70.3756806 C49.0904655,71.3538013 48.5501457,71.9861625 47.7962448,72.4679692 C47.3144381,72.7756872 46.8118375,73.0793753 46.2798997,73.2720013 C45.7228157,73.4709138 45.1238215,73.5735939 44.5354661,73.6490323 C43.9679046,73.7201186 43.3900267,73.7012589 42.8182742,73.7201186 C41.9910303,73.7452647 41.1721685,73.6196951 40.4245541,73.2908609 C39.8213689,73.0269875 39.2517118,72.6457654 38.7260606,72.2416539 C37.6812058,71.4332696 37.0233761,70.3337703 36.5899274,69.1045104 C36.4035879,68.5809547 36.3868238,68.0133932 36.3197674,67.4605003 C36.2340126,66.7233634 36.326054,65.9944474 36.4056835,65.2721404 C36.4832174,64.5998033 36.7198491,63.9547078 37.0361103,63.3453972 C37.6370388,62.1893191 38.4999064,61.2784159 39.5994057,60.5893147 C40.1460121,60.2458118 40.7532272,60.0657589 41.379463,59.9234253 C41.9700752,59.7873782 42.5627828,59.7266083 43.1658069,59.7454679 C43.7983293,59.766423 44.3992578,59.9171387 45.0088907,60.0701112 C45.8422599,60.2774057 46.5291045,60.7129499 47.1616269,61.2637473 C47.8400893,61.8521028 48.3971733,62.532822 48.7574402,63.3579703 C49.1825069,64.3296433 49.452828,65.3350058 49.4170431,66.4093589 C49.4067267,66.7233634 49.3187152,67.0040009 49.1741248,67.2678743 C48.9835944,67.6155682 48.6359005,67.7203438 48.2798246,67.7474243 C47.8442804,67.783048 47.4045451,67.7704749 46.9690009,67.7704749 C46.0788917,67.7725704 45.1908779,67.7725704 44.3009299,67.7725704 L44.3009299,67.7704749" id="Fill-6" fill="#5D3A7B"></path>
                <path d="M54.4482075,61.1612284 C54.6200395,61.0147037 54.7478658,60.9142803 54.8671488,60.8032181 C55.5604411,60.1581227 56.3770462,59.8837717 57.3277641,59.9110134 C58.1593602,59.9361595 58.8839239,60.5561089 59.0849319,61.3246784 C59.2337133,61.8983652 59.1121736,62.4598014 58.5905522,62.8660084 C58.0460413,63.2889796 57.4473695,63.5947632 56.7979218,63.8188219 C56.224235,64.0178956 55.6420049,64.2063305 55.1519773,64.5978689 C54.7309405,64.9371808 54.5196161,65.3686952 54.5196161,65.9004718 C54.5152639,67.5549595 54.5236459,69.2094472 54.5131684,70.8618395 C54.5089774,71.462768 54.4232225,72.0575712 54.1927162,72.6188461 C53.8388969,73.483648 52.9634563,73.7707332 52.1320214,73.6177608 C51.392789,73.4796182 50.9844865,73.0377874 50.7918605,72.310967 C50.6807984,71.8920257 50.6493657,71.4795321 50.6472702,71.0586565 C50.6409836,68.1895774 50.6430791,65.3184029 50.6388881,62.4472283 C50.6388881,61.9675171 50.6911147,61.4984447 50.8461827,61.0419454 C51.0787845,60.3530053 51.6000836,60.0325531 52.2912803,59.9592102 C53.0598498,59.8774852 53.6733514,60.1727913 54.1488716,60.773881 C54.2409129,60.8891342 54.3289245,61.0063217 54.4482075,61.1612284" id="Fill-8" fill="#5D3A7B"></path>
                <path d="M17.0151001,67.1816359 C17.0151001,65.7325084 16.9984972,64.2832197 17.0257388,62.8360265 C17.0341209,62.4528701 17.1324488,62.0506929 17.2770391,61.6947781 C17.559611,60.9910083 18.3197984,60.7187529 19.1304394,60.8233673 C19.9220595,60.9260474 20.4728569,61.5210118 20.5376566,62.3879092 C20.5881101,63.0936133 20.6109996,63.8036697 20.6150294,64.5135649 C20.6235727,66.7543125 20.6277637,68.9952214 20.6109996,71.235969 C20.6068086,71.7345398 20.5881101,72.2411703 20.3638903,72.7145949 C20.0706797,73.3364786 19.5869387,73.6317846 18.9126673,73.6569308 C18.2885269,73.6820769 17.7377295,73.5208837 17.4005132,72.9637997 C17.1534039,72.5554972 17.0171956,72.0946456 17.0171956,71.6088091 C17.0131658,70.1322787 17.0151001,68.6580051 17.0151001,67.1816359" id="Fill-9" fill="#5D3A7B"></path>
                <path d="M20.8677805,57.4267027 C21.0331648,58.522011 19.9462385,59.4203411 18.9263687,59.4056725 C17.5568707,59.3868129 16.8447188,58.436095 16.8656739,57.3785059 C16.8887246,56.1995383 17.7096819,55.4058227 18.9410373,55.3681034 C19.9002984,55.3365096 21.0478333,56.2580515 20.8677805,57.4267027" id="Fill-10" fill="#5D3A7B"></path>
            </g>
        </g>
    </g>
</svg>